<svg width="402" height="404" viewBox="0 0 402 404" fill="none" xmlns="http://www.w3.org/2000/svg">
<mask id="path-1-outside-1_34_251" maskUnits="userSpaceOnUse" x="-0.217735" y="-0.470062" width="402" height="405" fill="black">
<rect fill="white" x="-0.217735" y="-0.470062" width="402" height="405"/>
<path d="M30.0396 187.618C7.85382 227.974 15.2509 262.64 39.3581 313.136C63.4653 363.632 144.134 382.416 179.2 374.954C214.266 367.492 224.805 356.766 245.175 336.333C264.894 343.642 276.704 339.357 288.874 323.305C325.768 338.067 340.901 334.889 357.448 313.136C374.459 275.328 369.004 259.63 334.59 240.685C347.326 219.761 352.567 208.024 329.548 186.982C365.944 154.468 358.793 125.971 329.548 104.998C300.303 84.0252 269.071 91.4523 235.763 119.298C222.247 98.1154 210.564 91.5219 186.349 94.5116C202.82 50.9773 178.617 23.3315 133.91 26.827C89.2018 30.3224 89.2018 52.8839 94.5802 87.5207C40.0259 103.049 15.8685 117.839 30.0396 187.618Z"/>
</mask>
<path d="M30.0396 187.618C7.85382 227.974 15.2509 262.64 39.3581 313.136C63.4653 363.632 144.134 382.416 179.2 374.954C214.266 367.492 224.805 356.766 245.175 336.333C264.894 343.642 276.704 339.357 288.874 323.305C325.768 338.067 340.901 334.889 357.448 313.136C374.459 275.328 369.004 259.63 334.59 240.685C347.326 219.761 352.567 208.024 329.548 186.982C365.944 154.468 358.793 125.971 329.548 104.998C300.303 84.0252 269.071 91.4523 235.763 119.298C222.247 98.1154 210.564 91.5219 186.349 94.5116C202.82 50.9773 178.617 23.3315 133.91 26.827C89.2018 30.3224 89.2018 52.8839 94.5802 87.5207C40.0259 103.049 15.8685 117.839 30.0396 187.618Z" fill="#FCEFCB"/>
<path d="M41.5412 193.941C33.8735 189.725 26.2058 185.51 18.5381 181.295C6.09661 200.176 -1.5483 225.257 0.264986 249.417C2.01794 276.418 11.0013 300.111 20.039 322.359C54.1351 385.992 115.226 407.979 185.214 403.217C213.127 401.099 251.879 376.503 267.447 358.537L234.244 365.822C244.597 369.773 260.002 374.707 278.938 369.393C297.742 363.718 308.075 351.591 314.952 343.075L276.717 353.688C290.158 358.967 303.699 365.568 326.834 365.856C338.276 365.921 352.866 361.699 362.913 354.703C373.134 347.818 379.455 340.334 384.614 333.802L388.576 327.141C394.609 311.774 406.362 294.055 398.798 260.921C387.478 227.666 365.185 218.835 351.435 210.087L364.427 258.845C367.692 253.411 371.511 247.539 375.422 238.173C379.323 229.363 382.834 212.634 378.253 198.027C371.493 177.211 361.05 168.977 353.137 161.177L352.84 213.055C367.398 199.246 386.346 181.03 388.843 147.088C390.032 111.736 366.262 89.0129 349.432 77.2719C330.1 62.5871 298.086 55.0645 273.13 62.1792C248.067 68.6116 230.327 81.7122 215.202 94.7033L262.786 102.055C256.07 92.4067 247.59 79.6909 230.025 70.4096C212.049 61.2934 194.587 62.7033 182.633 64.4193L214.708 105.241C222.133 84.2832 226.974 51.7954 205.305 25.3581C183.196 0.00221062 153.451 -1.52909 131.871 0.750566C116.094 3.25556 89.8693 5.34557 74.6226 33.3082C63.6723 59.8935 70.8541 75.8948 73.0244 90.8678L88.6083 66.5399C65.2449 75.5962 30.7492 83.553 15.3245 119.261C5.59604 146.541 12.0034 169.257 17.1772 190.23C25.7522 188.488 34.3271 186.747 42.9021 185.005C40.3768 165.558 40.0415 144.949 46.8552 133.416C53.744 120.097 76.3721 113.95 100.552 108.501L119.876 101.843L116.136 84.1735C114.453 70.6868 115.262 55.9652 117.295 55.69C117.615 55.521 117.605 55.7901 118.074 55.6185C118.53 55.4781 119.592 55.0274 121.278 54.5886C124.658 53.6723 130.06 53.0202 135.948 52.9033C149.572 52.3369 159.864 57.4182 160.947 60.8444C162.605 63.337 163.276 71.8633 157.99 83.7819L141.314 132.075L190.064 124.604C193.682 124.31 196.744 124.381 198.54 124.704C200.403 125.041 200.62 125.396 200.821 125.641C200.968 125.765 204.771 129.614 208.739 136.54L229.589 167.435L256.323 143.892C267.6 134.947 279.454 128.479 288.116 126.945C296.782 125.564 301.377 126.82 309.665 132.724C314.079 135.999 317.325 139.446 318.668 141.647C319.359 142.743 319.586 143.445 319.624 143.707C319.659 143.988 319.585 143.844 319.556 143.938C320.165 143.719 315.812 152.941 306.256 160.909L277.403 186.837L305.959 212.788C310.621 216.687 312.7 221.398 310.96 217.305C310.534 215.955 310.375 213.703 310.555 212.487C310.714 211.226 310.904 211.104 310.584 211.886C309.998 213.485 307.614 217.829 304.754 222.525L285.839 253.885L317.745 271.283C323.137 274.202 327.849 277.201 330.501 279.41C331.82 280.486 332.535 281.29 332.659 281.425C332.801 281.595 332.418 280.945 332.28 280.294C332.119 279.641 332.228 279.31 332.242 279.97C332.258 280.597 332.11 282.069 331.661 284.005C330.773 287.926 328.803 293.386 326.321 299.131L330.283 292.471C327.693 296.087 325.39 298.314 324.997 298.633C324.775 298.834 325.076 298.704 325.326 298.694C325.578 298.669 325.628 298.777 325.013 298.856C322.39 299.457 311.353 296.9 301.032 292.921L276.976 283.923L262.796 303.534C261.282 305.705 259.925 307.264 259.345 307.875C259.057 308.188 258.989 308.267 259.184 308.212C259.372 308.16 259.835 307.993 260.343 307.898C260.849 307.797 261.359 307.782 261.572 307.827C261.793 307.869 261.715 307.949 261.319 307.954C260.531 307.98 258.554 307.637 256.105 306.844L236.137 300.08L222.903 314.129C203.769 334.853 197.252 340.447 173.186 346.692C138.52 353.767 77.2222 336.826 58.6772 303.913C47.9653 284.33 38.2948 264.78 34.6096 245.543C31.2026 228.396 33.6128 211.178 41.5412 193.941ZM18.5381 181.295L41.5412 193.941L43.9393 188.745L42.9021 185.005L17.1772 190.23L18.5381 181.295Z" fill="#E9A319" mask="url(#path-1-outside-1_34_251)"/>
</svg>
